<svg width="1024" height="1024" viewBox="0 0 1024 1024" fill="none" xmlns="http://www.w3.org/2000/svg">
<rect width="1024" height="1024" fill="black"/>
<path d="M313.285 438.159H199.944V483.29H302.003V540.728H199.944V643.3H128.656V380.718H313.285V438.159Z" fill="white"/>
<path fill-rule="evenodd" clip-rule="evenodd" d="M568.782 643.3H491.854L476.682 593.041H390.095L374.923 643.3H297.995L384.667 380.718H482.11L568.782 643.3ZM406.198 539.703H460.58L434.413 453.031H432.362L406.198 539.703Z" fill="white"/>
<path d="M743.826 529.446H746.903L807.933 380.718H896.657V643.3H826.908V491.495H824.857L766.392 641.249H724.336L665.872 490.469H663.821V643.3H594.072V380.718H682.795L743.826 529.446Z" fill="white"/>
</svg>
